HIERARCHY
ROOT Hips
{
  OFFSET -187.679 86.5976 -156.378
  CHANNELS 6 Xposition Yposition Zposition Zrotation Xrotation Yrotation
  JOINT LeftUpLeg
  {
    OFFSET 8.64259 1.95398 -2.38835
    CHANNELS 3 Zrotation Xrotation Yrotation
    JOINT LeftLeg
    {
      OFFSET 43.7702 0 0
      CHANNELS 3 Zrotation Xrotation Yrotation
      JOINT LeftFoot
      {
        OFFSET 40.6238 0 0
        CHANNELS 3 Zrotation Xrotation Yrotation
        JOINT LeftToeBase
        {
          OFFSET 12.7242 0 0
          CHANNELS 3 Zrotation Xrotation Yrotation
          End Site
          {
            OFFSET 0 0 0
          }
        }
      }
    }
  }
  JOINT RightUpLeg
  {
    OFFSET -8.2249 1.95398 -2.59336
    CHANNELS 3 Zrotation Xrotation Yrotation
    JOINT RightLeg
    {
      OFFSET 43.5653 0 0
      CHANNELS 3 Zrotation Xrotation Yrotation
      JOINT RightFoot
      {
        OFFSET 40.6238 0 0
        CHANNELS 3 Zrotation Xrotation Yrotation
        JOINT RightToeBase
        {
          OFFSET 12.7242 0 0
          CHANNELS 3 Zrotation Xrotation Yrotation
          End Site
          {
            OFFSET 0 0 0
          }
        }
      }
    }
  }
  JOINT Spine
  {
    OFFSET 0.165834 0.87714 6.61349
    CHANNELS 3 Zrotation Xrotation Yrotation
    JOINT Spine1
    {
      OFFSET 7.38963 1.71661e-005 0
      CHANNELS 3 Zrotation Xrotation Yrotation
      JOINT Spine2
      {
        OFFSET 11.9445 1.14441e-005 0
        CHANNELS 3 Zrotation Xrotation Yrotation
        JOINT Spine3
        {
          OFFSET 14.7254 4.19617e-005 0
          CHANNELS 3 Zrotation Xrotation Yrotation
          JOINT Spine4
          {
            OFFSET 10.9679 0 0
            CHANNELS 3 Zrotation Xrotation Yrotation
            JOINT RightShoulder
            {
              OFFSET 2.46616 -1.6653 3.69651
              CHANNELS 3 Zrotation Xrotation Yrotation
              JOINT RightArm
              {
                OFFSET 13.0012 0 0
                CHANNELS 3 Zrotation Xrotation Yrotation
                JOINT RightForeArm
                {
                  OFFSET 28.7848 1.52588e-005 0
                  CHANNELS 3 Zrotation Xrotation Yrotation
                  JOINT RightHand
                  {
                    OFFSET 26.5688 1.52588e-005 0
                    CHANNELS 3 Zrotation Xrotation Yrotation
                    End Site
                    {
                      OFFSET 0 0 0
                    }
                  }
                }
              }
            }
            JOINT LeftShoulder
            {
              OFFSET 2.38034 -1.29275 -3.7523
              CHANNELS 3 Zrotation Xrotation Yrotation
              JOINT LeftArm
              {
                OFFSET 16.3182 6.10352e-005 0
                CHANNELS 3 Zrotation Xrotation Yrotation
                JOINT LeftForeArm
                {
                  OFFSET 27.0901 0 0
                  CHANNELS 3 Zrotation Xrotation Yrotation
                  JOINT LeftHand
                  {
                    OFFSET 24.5451 1.52588e-005 0
                    CHANNELS 3 Zrotation Xrotation Yrotation
                    End Site
                    {
                      OFFSET 0 0 0
                    }
                  }
                }
              }
            }
            JOINT Neck
            {
              OFFSET 5.0226 -0.0266342 0
              CHANNELS 3 Zrotation Xrotation Yrotation
              JOINT Head
              {
                OFFSET 6.69363 2.86102e-005 0
                CHANNELS 3 Zrotation Xrotation Yrotation
                End Site
                {
                  OFFSET 0 0 0
                }
              }
            }
          }
        }
      }
    }
  }
}
MOTION
Frames:	9
Frame Time:	0.0416667
1.20729 109.585 -2.34626 88.2884 48.4182 90.4981 -171.864 -1.83207 89.8521 -73.3753 38.0243 12.1888 51.5154 -3.70397 -2.60803 16.4868 -5.0501 0.336099 166.59 2.58755 90.5617 -96.3963 0.76749 -2.25656 59.438 -0.0818252 0.0756454 21.0328 -2.78687 4.32695 0.103377 7.24775 -90.271 12.3782 0.0766598 -0.549213 0.70709 0.0524115 -0.552062 -21.8272 0.238175 -0.500786 -1.81459 0.238167 -0.500783 107.437 -6.81738 -65.3636 -20.4263 38.0823 -61.8307 -17.2564 0.173838 0.242025 -10.6604 0.563258 -11.6318 -78.2007 -3.72762 95.0287 27.6212 -37.9234 -53.35 13.8066 -12.8071 -0.226011 2.56155 -0.117337 -4.99966 -30.294 0.718499 -7.26175 14.9929 0.587686 4.90638 
8.31611 112.063 -8.4795 86.7344 47.9556 91.1679 -171.375 19.4663 95.0977 -94.8789 24.9942 7.12529 59.9732 0.433922 0.896728 12.8412 -5.83777 -1.17097 166.778 29.6461 87.2353 -117.514 1.65001 -4.30844 65.523 -2.58748 -1.22665 22.0583 -2.12832 3.06637 -0.122662 8.46279 -90.3725 9.94665 -0.413593 -0.710112 -1.72441 -0.444453 -0.691223 -24.2582 -0.181049 -0.801577 -4.24551 -0.181068 -0.801582 106.006 -15.4989 -72.0137 -27.8815 23.0027 -27.6945 -17.2944 3.11444 -3.16265 -10.2252 0.359324 -9.47474 -78.1264 -4.9618 95.713 36.2463 -16.8748 -26.6777 11.1484 -12.2164 -3.37334 1.27625 -0.1153 -5.13778 -31.7864 1.30695 -5.93707 18.0058 1.51493 5.61342 
14.7691 111.129 -12.7 83.7506 48.9687 92.3301 -167.564 45.5359 84.7815 -103.034 23.2846 5.30159 67.8208 4.64632 2.78997 8.72813 -6.39537 -3.3445 166.078 53.1457 94.2577 -109.674 4.35649 -3.67132 72.4853 -5.17399 -2.57015 23.3448 -1.94505 3.23887 -0.271286 9.86143 -90.2912 7.14912 -0.667022 -0.5442 -4.52175 -0.690328 -0.514329 -27.0568 -0.472637 -0.719497 -7.04413 -0.472646 -0.719519 101.455 -22.5612 -83.7186 -13.9557 3.27646 -6.92201 -16.2058 3.06714 -4.81508 -9.90201 0.482294 -11.1689 -79.8832 -7.4652 90.6443 31.0196 15.8022 -11.417 6.53445 -16.493 -3.02084 -0.101055 -0.0992982 -4.82068 -25.1563 0.972373 -7.40806 18.8902 1.57912 6.23995 
23.0441 106.191 -18.6961 80.1199 49.9055 95.5942 -164.448 62.2902 78.6408 -89.0635 23.9967 1.70252 74.7226 7.6307 1.36435 8.66829 -8.29091 0.0763894 168.557 61.1935 93.9211 -79.1903 5.04913 0.331605 73.7127 -5.274 -0.949666 22.0599 -1.66347 1.74303 -0.0957559 11.08 -90.52 4.71068 -0.404164 -1.01423 -6.96058 -0.448404 -0.99547 -29.4925 -0.0806735 -1.08881 -9.47989 -0.0806795 -1.0888 97.7003 -31.4154 -90.9558 -0.285276 -8.16133 -0.961998 -14.5566 -2.26496 -7.75608 -10.7322 0.41306 -9.86731 -83.239 -14.9139 83.0683 16.4678 25.2487 -1.9703 5.73871 -18.3271 -1.67762 2.64058 -0.133733 -5.28468 -11.149 -0.490948 -8.61563 15.7318 1.04464 7.55674 
34.6248 97.7944 -28.0121 76.2772 47.046 99.2797 -170.692 68.6396 85.5173 -63.4848 23.6192 -2.47054 75.1711 6.86432 -1.26383 14.2737 -7.93166 4.22174 174.182 57.6117 91.9566 -47.9432 -0.345016 3.15468 67.5399 -3.29071 0.194682 23.7076 -1.11844 1.00185 0.137407 11.7145 -90.5968 3.44303 0.0365727 -1.16703 -8.22844 -0.0148376 -1.16751 -30.7597 0.385592 -1.1021 -10.747 0.385607 -1.10209 93.0933 -37.5566 -98.4456 11.4033 -11.3182 -0.363553 -14.3767 -0.599943 -10.2457 -11.6981 0.446963 -9.81013 -84.9375 -22.9414 81.6174 -1.71402 20.782 1.86481 6.59629 -16.6621 -1.22557 2.03644 -0.125541 -5.16308 -0.898015 -0.465946 -4.07455 12.3841 0.650016 4.06477 
47.0432 82.791 -38.4584 82.9325 44.5019 94.5406 -179.999 67.0824 95.4162 -55.343 25.9021 -0.193381 74.4485 6.18259 -2.7932 16.8136 -5.63017 2.04908 177.151 62.4253 95.1882 -67.832 2.96412 -0.384696 66.7984 -2.86781 -0.498265 22.6016 -2.84753 5.40509 0.245273 11.6631 -90.2261 3.5497 0.399782 -0.442555 -8.12123 0.379919 -0.459728 -30.6568 0.514304 -0.301943 -10.6441 0.514319 -0.301946 85.2064 -49.1634 -108.134 12.7451 -13.6929 -2.5071 -13.5221 -2.05094 -5.72766 -8.66407 0.237467 -8.56615 -87.4132 -34.111 79.442 -9.80688 27.5472 0.625027 3.15627 -25.5093 0.0641622 3.04658 0.0846617 -0.584454 -3.83319 0.946686 -2.03012 12.6483 1.55883 2.90877 
55.4788 71.5713 -46.4564 91.6284 40.1836 91.5798 171.184 73.8453 104.029 -79.7959 30.5875 5.42578 63.6761 2.62115 2.54552 6.95939 -14.9143 9.91518 161.04 68.0298 113.478 -98.9753 -0.852607 -2.24666 67.7922 -3.79216 -3.17895 29.8368 -1.68125 6.63091 0.469039 12.0612 -90.106 2.75207 0.895189 -0.195706 -8.9186 0.885736 -0.234918 -31.4562 0.912631 0.0824098 -11.4436 0.912624 0.0824052 80.0526 -50.8096 -115.256 0.716644 -16.7123 -26.9562 -9.91009 -1.49424 -0.00536216 -12.5999 0.294746 -7.96842 -91.6331 -40.8763 74.0917 -4.35657 23.6616 -17.5846 5.02543 -18.5477 0.00796678 -1.97799 -0.087238 -4.3283 2.4509 2.36041 -0.87095 13.7763 2.81763 2.54886 
62.512 65.9812 -52.7433 97.1804 43.4313 83.4372 -173.328 76.2396 86.6536 -98.9172 31.1615 5.70792 70.5253 6.76678 4.75151 11.1232 -9.60721 4.60479 160.709 66.4336 108.984 -115.785 0.711324 -4.24407 74.014 -5.58345 -5.16398 36.9894 -0.487104 8.1953 0.330161 12.6012 -89.6866 1.6681 0.779609 0.629061 -10.0028 0.806538 0.594137 -32.5376 0.554513 0.834276 -12.5249 0.554508 0.83427 85.7339 -43.6895 -109.18 -8.13867 -2.19826 -59.7653 -10.3479 -9.22521 -0.502102 -14.2441 0.363499 -8.1743 -93.4955 -37.3965 69.8254 12.1963 6.84372 -54.5845 6.6656 -16.4391 -0.301777 2.45951 -0.198018 -6.94845 7.47685 1.07562 -1.52672 13.8542 1.43971 0.628553 
68.1933 65.8407 -56.9322 94.8572 45.73 83.4682 -161.232 76.3258 76.6719 -105.45 33.3936 5.44319 73.4141 8.53107 4.95964 10.0059 -9.60621 3.5677 165.077 64.0003 105.672 -118.847 5.27843 -4.44786 74.1982 -5.61918 -3.92655 45.7155 1.37974 8.63261 0.428276 12.2676 -89.586 2.33374 1.01624 0.828185 -9.33706 1.0517 0.782651 -31.8718 0.72036 1.09531 -11.8592 0.720361 1.09531 92.6984 -31.1855 -100.91 -7.19168 14.7327 -82.4874 -12.1615 -8.11172 -0.330832 -15.0519 0.567283 -9.59851 -90.6544 -27.0112 71.1299 8.43913 -12.7325 -79.979 10.0535 -9.91004 -2.56474 5.28835 -0.331515 -7.81349 9.61085 -1.01376 -0.321701 16.8366 -0.731387 0.986522 
